<mxfile host="app.diagrams.net" modified="2024-03-29T10:30:37.348Z" agent="Mozilla/5.0 (Windows NT 10.0; Win64; x64) AppleWebKit/537.36 (KHTML, like Gecko) Chrome/123.0.0.0 Safari/537.36" etag="p-Ki7KFt5om8G-C-JFSZ" version="24.2.1" type="device">
  <diagram name="PÃ¡gina-1" id="EWKPui8zSQGyiGMz7Goi">
    <mxGraphModel dx="890" dy="1008" grid="1" gridSize="10" guides="1" tooltips="1" connect="1" arrows="1" fold="1" page="1" pageScale="1" pageWidth="827" pageHeight="1169" math="0" shadow="0">
      <root>
        <mxCell id="0" />
        <mxCell id="1" parent="0" />
        <mxCell id="BbDK0VcoG45JTNJmtJnU-1" value="" style="image;aspect=fixed;perimeter=ellipsePerimeter;html=1;align=center;shadow=0;dashed=0;spacingTop=3;image=img/lib/active_directory/internet_cloud.svg;" vertex="1" parent="1">
          <mxGeometry x="333" y="90" width="161.12" height="101.5" as="geometry" />
        </mxCell>
        <mxCell id="BbDK0VcoG45JTNJmtJnU-2" value="VirtualBox NAT Network&lt;div&gt;10.0.2.0/24&lt;/div&gt;" style="text;strokeColor=none;align=center;fillColor=none;html=1;verticalAlign=middle;whiteSpace=wrap;rounded=0;" vertex="1" parent="1">
          <mxGeometry x="338" y="20" width="150" height="60" as="geometry" />
        </mxCell>
        <mxCell id="BbDK0VcoG45JTNJmtJnU-3" value="" style="image;aspect=fixed;perimeter=ellipsePerimeter;html=1;align=center;shadow=0;dashed=0;spacingTop=3;image=img/lib/active_directory/internet_cloud.svg;" vertex="1" parent="1">
          <mxGeometry x="87.22" y="310" width="125.55" height="79.1" as="geometry" />
        </mxCell>
        <mxCell id="BbDK0VcoG45JTNJmtJnU-4" value="" style="image;aspect=fixed;perimeter=ellipsePerimeter;html=1;align=center;shadow=0;dashed=0;spacingTop=3;image=img/lib/active_directory/internet_cloud.svg;" vertex="1" parent="1">
          <mxGeometry x="635" y="308.6" width="130" height="81.9" as="geometry" />
        </mxCell>
        <mxCell id="BbDK0VcoG45JTNJmtJnU-5" value="" style="endArrow=classic;html=1;rounded=0;" edge="1" parent="1">
          <mxGeometry width="50" height="50" relative="1" as="geometry">
            <mxPoint x="333" y="150" as="sourcePoint" />
            <mxPoint x="203" y="150" as="targetPoint" />
          </mxGeometry>
        </mxCell>
        <mxCell id="BbDK0VcoG45JTNJmtJnU-6" value="" style="endArrow=classic;html=1;rounded=0;" edge="1" parent="1">
          <mxGeometry width="50" height="50" relative="1" as="geometry">
            <mxPoint x="494.12" y="153.38" as="sourcePoint" />
            <mxPoint x="640" y="153" as="targetPoint" />
          </mxGeometry>
        </mxCell>
        <mxCell id="BbDK0VcoG45JTNJmtJnU-7" value="" style="endArrow=classic;html=1;rounded=0;" edge="1" parent="1">
          <mxGeometry width="50" height="50" relative="1" as="geometry">
            <mxPoint x="149.38" y="180" as="sourcePoint" />
            <mxPoint x="149.38" y="300" as="targetPoint" />
          </mxGeometry>
        </mxCell>
        <mxCell id="BbDK0VcoG45JTNJmtJnU-8" value="" style="endArrow=classic;html=1;rounded=0;" edge="1" parent="1">
          <mxGeometry width="50" height="50" relative="1" as="geometry">
            <mxPoint x="699.38" y="180" as="sourcePoint" />
            <mxPoint x="699" y="300" as="targetPoint" />
          </mxGeometry>
        </mxCell>
        <mxCell id="BbDK0VcoG45JTNJmtJnU-9" value="" style="endArrow=classic;html=1;rounded=0;" edge="1" parent="1">
          <mxGeometry width="50" height="50" relative="1" as="geometry">
            <mxPoint x="149.37" y="389.1" as="sourcePoint" />
            <mxPoint x="149.37" y="499.1" as="targetPoint" />
          </mxGeometry>
        </mxCell>
        <mxCell id="BbDK0VcoG45JTNJmtJnU-10" value="" style="endArrow=classic;html=1;rounded=0;" edge="1" parent="1">
          <mxGeometry width="50" height="50" relative="1" as="geometry">
            <mxPoint x="699.38" y="389.1" as="sourcePoint" />
            <mxPoint x="699" y="500" as="targetPoint" />
          </mxGeometry>
        </mxCell>
        <mxCell id="BbDK0VcoG45JTNJmtJnU-11" value="" style="image;html=1;image=img/lib/clip_art/networking/Router_Icon_128x128.png" vertex="1" parent="1">
          <mxGeometry x="100" y="100" width="100" height="108" as="geometry" />
        </mxCell>
        <mxCell id="BbDK0VcoG45JTNJmtJnU-12" value="" style="image;html=1;image=img/lib/clip_art/networking/Router_Icon_128x128.png" vertex="1" parent="1">
          <mxGeometry x="650" y="109" width="100" height="90" as="geometry" />
        </mxCell>
        <mxCell id="BbDK0VcoG45JTNJmtJnU-13" value="" style="image;html=1;image=img/lib/clip_art/computers/Laptop_128x128.png" vertex="1" parent="1">
          <mxGeometry x="95" y="500" width="110" height="100" as="geometry" />
        </mxCell>
        <mxCell id="BbDK0VcoG45JTNJmtJnU-14" value="" style="image;html=1;image=img/lib/clip_art/computers/Laptop_128x128.png" vertex="1" parent="1">
          <mxGeometry x="644" y="500" width="112" height="100" as="geometry" />
        </mxCell>
        <mxCell id="BbDK0VcoG45JTNJmtJnU-15" value="PC A (Windows)&lt;div&gt;192.168.10.2&lt;/div&gt;" style="text;strokeColor=none;align=center;fillColor=none;html=1;verticalAlign=middle;whiteSpace=wrap;rounded=0;" vertex="1" parent="1">
          <mxGeometry x="90" y="595" width="115" height="70" as="geometry" />
        </mxCell>
        <mxCell id="BbDK0VcoG45JTNJmtJnU-16" value="PC B (Windows)&lt;div&gt;192.168.20.2&lt;/div&gt;" style="text;strokeColor=none;align=center;fillColor=none;html=1;verticalAlign=middle;whiteSpace=wrap;rounded=0;" vertex="1" parent="1">
          <mxGeometry x="655" y="605" width="90" height="60" as="geometry" />
        </mxCell>
        <mxCell id="BbDK0VcoG45JTNJmtJnU-17" value="PfSense1&lt;div&gt;WAN:10.0.2.11&lt;/div&gt;&lt;div&gt;LAN:192.168.10.1&lt;/div&gt;" style="text;strokeColor=none;align=center;fillColor=none;html=1;verticalAlign=middle;whiteSpace=wrap;rounded=0;" vertex="1" parent="1">
          <mxGeometry x="80" y="49" width="140" height="60" as="geometry" />
        </mxCell>
        <mxCell id="BbDK0VcoG45JTNJmtJnU-18" value="PfSense2&lt;div&gt;WAN:10.0.2.6&lt;/div&gt;&lt;div&gt;LAN:192.168.20.1&lt;/div&gt;" style="text;strokeColor=none;align=center;fillColor=none;html=1;verticalAlign=middle;whiteSpace=wrap;rounded=0;" vertex="1" parent="1">
          <mxGeometry x="635" y="49" width="130" height="80" as="geometry" />
        </mxCell>
        <mxCell id="BbDK0VcoG45JTNJmtJnU-19" value="VirtualBox&lt;div&gt;vboxnet0&lt;/div&gt;&lt;div&gt;192.168.10.0/24&lt;/div&gt;" style="text;strokeColor=none;align=center;fillColor=none;html=1;verticalAlign=middle;whiteSpace=wrap;rounded=0;" vertex="1" parent="1">
          <mxGeometry x="212.77" y="319.55" width="100" height="60" as="geometry" />
        </mxCell>
        <mxCell id="BbDK0VcoG45JTNJmtJnU-20" value="VirtualBox&lt;div&gt;vboxnet1&lt;/div&gt;&lt;div&gt;192.168.20.0/24&lt;/div&gt;" style="text;strokeColor=none;align=center;fillColor=none;html=1;verticalAlign=middle;whiteSpace=wrap;rounded=0;" vertex="1" parent="1">
          <mxGeometry x="525" y="319.55" width="110" height="60" as="geometry" />
        </mxCell>
      </root>
    </mxGraphModel>
  </diagram>
</mxfile>
